inDegrees=yes
name=ik_S46_A05_T01
DataType=double
version=3
OpenSimVersion=4.3-2021-08-27-4bc7ad9
endheader
time	pelvis_tilt	pelvis_list	pelvis_rotation	pelvis_tx	pelvis_ty	pelvis_tz	hip_flexion_r	hip_adduction_r	hip_rotation_r	knee_angle_r	knee_angle_r_beta	ankle_angle_r	subtalar_angle_r	mtp_angle_r	hip_flexion_l	hip_adduction_l	hip_rotation_l	knee_angle_l	knee_angle_l_beta	ankle_angle_l	subtalar_angle_l	mtp_angle_l	lumbar_extension	lumbar_bending	lumbar_rotation	arm_flex_r	arm_add_r	arm_rot_r	elbow_flex_r	pro_sup_r	wrist_flex_r	wrist_dev_r	arm_flex_l	arm_add_l	arm_rot_l	elbow_flex_l	pro_sup_l	wrist_flex_l	wrist_dev_l
0	0	0	0	0	0.9399999999999999	0	0	0	0	0	0	0	0	0	0	0	0	0	0	0	0	0	0	0	0	0	0	0	0	89.99999999963507	0	0	0	0	0	0	89.99999999869995	0	0
0.02	-11.16898298047322	-1.118244943887046	27.22886524372494	0	0.9399999999999999	0	3.560354545025028	-1.674852175191738	-1.200159055721159	5.507434280972408	0.09612286154017501	0	0	0	3.560354545025028	-1.674852175191738	-1.200159055721159	5.507434280972408	0.09612286154017501	0	0	0	-7.405634483831009	-5.560622816925128	4.717171588202401	12.81420885233653	-5.859272304246623	2.858180151899618	65.89734544643792	138.9436781171193	0	0	16.55072429528212	-3.991703729996772	8.886004842519235	53.28618716873039	128.8348487723703	0	0
0.04	-8.990332820032851	-3.417264849950734	29.45218793115135	0	0.9399999999999999	0	40.156950062775	-14.92185432569819	-12.03954635066409	50.65861209802785	0.8841595756012183	0	0	0	40.156950062775	-14.92185432569819	-12.03954635066409	50.65861209802785	0.8841595756012183	0	0	0	-8.330337607941251	-2.254576914864216	2.980383807949448	12.85473682801263	-5.857349316236685	2.900275561721498	65.88168024652116	138.9036018490802	0	0	16.53800618523402	-4.005647300655787	8.857553740718989	53.26505278478391	128.8534802992604	0	0
0.06	-8.985758194361418	-3.421103232792033	29.45352129708686	0	0.9399999999999999	0	40.16447016665867	-14.8939595621098	-12.03232983546928	50.66309755152393	0.88423786153317	0	0	0	40.16447016665867	-14.8939595621098	-12.03232983546928	50.66309755152393	0.88423786153317	0	0	0	-8.329556883452359	-2.255957724166548	2.97614835438244	12.85990976597257	-5.862906475197092	2.907178741473811	65.90014523168485	138.8376357570156	0	0	16.55014117212738	-4.004088639703308	8.861402918430178	53.2931849067861	128.813679237099	0	0
0.08	-8.974945091425077	-3.40893019839291	29.44595526722293	0	0.9399999999999999	0	40.16335220706092	-14.89880868795864	-12.03349014465991	50.66247105751274	0.8842269271499308	0	0	0	40.16335220706092	-14.89880868795864	-12.03349014465991	50.66247105751274	0.8842269271499308	0	0	0	-8.313706204815565	-2.252212282283562	2.981752604092274	12.84096590635528	-5.85962901842112	2.883083288395739	65.86916325174958	138.9074812654447	0	0	16.51981738473063	-3.991877300535622	8.849543204314946	53.26053406018361	128.8660820568591	0	0
0.1	-8.971413911554226	-3.407317038743204	29.43529677729321	0	0.9399999999999999	0	40.16778308707744	-14.88345276233258	-12.02937553754264	50.66514274342653	0.8842735568657055	0	0	0	40.16778308707744	-14.88345276233258	-12.02937553754264	50.66514274342653	0.8842735568657055	0	0	0	-8.310651146457358	-2.250022129463304	2.978697930986477	12.87103300597608	-5.855030515212847	2.872715364417004	65.88080453051886	138.8947682558668	0	0	16.50577797706586	-3.979200392090114	8.838890004325956	53.26332470702114	128.8502527583475	0	0
0.12	-8.966756422872109	-3.414959205176066	29.42993326835788	0	0.9399999999999999	0	40.1789058337008	-14.84449103942069	-12.01895372874569	50.67181739210828	0.884390051461616	0	0	0	40.1789058337008	-14.84449103942069	-12.01895372874569	50.67181739210828	0.884390051461616	0	0	0	-8.312145585604057	-2.253167846477994	2.973934405000139	12.87388308241309	-5.858019566976621	2.858242399528786	65.88640226257607	138.8419688622734	0	0	16.52335149475655	-3.999277124259426	8.829099701805552	53.29955191698147	128.8073218028374	0	0
0.14	-8.9631481593785	-3.410834053156197	29.42081020685083	0	0.9399999999999999	0	40.17927391110128	-14.84555702551841	-12.01890993283497	50.67210975414871	0.8843951541418295	0	0	0	40.17927391110128	-14.84555702551841	-12.01890993283497	50.67210975414871	0.8843951541418295	0	0	0	-8.306694372758995	-2.252350315738055	2.980787000972195	12.87245694906125	-5.845231851803663	2.852082671645336	65.87883601301039	138.9409313392384	0	0	16.5219575536243	-3.978357186837004	8.855877300177356	53.26713434496526	128.8437194499311	0	0
0.16	-8.955556325345666	-3.407583887515199	29.42036478195502	0	0.9399999999999999	0	40.17779132630186	-14.84331421392977	-12.01925427814497	50.67101973842108	0.8843761297784837	0	0	0	40.17779132630186	-14.84331421392977	-12.01925427814497	50.67101973842108	0.8843761297784837	0	0	0	-8.298224205706493	-2.254046665845365	2.980127355314294	12.87132231889132	-5.838141717431919	2.849508074430303	65.87316460616688	138.9465277802354	0	0	16.52094648233959	-3.97962769439401	8.859946306687441	53.26491918832783	128.8447851856364	0	0
0.18	-8.952040200681509	-3.411767797079974	29.42191418426932	0	0.9399999999999999	0	40.18451825116939	-14.82365515934956	-12.01352447682948	50.67517271456254	0.8844486128859088	0	0	0	40.18451825116939	-14.82365515934956	-12.01352447682948	50.67517271456254	0.8844486128859088	0	0	0	-8.298534058078538	-2.255039712042408	2.974085338800462	12.87970912098286	-5.829384619554827	2.874037734459375	65.87828483891603	138.9173518045373	0	-1.806688979881346e-51	16.52511940538898	-3.981871234169454	8.864754499909171	53.28327344371015	128.8104627930887	0	-1.806688979881346e-51
